<?xml version="1.0" encoding="utf-8"?>
<!-- Generator: Adobe Illustrator 25.4.0, SVG Export Plug-In . SVG Version: 6.00 Build 0)  -->
<svg version="1.1" xmlns="http://www.w3.org/2000/svg" xmlns:xlink="http://www.w3.org/1999/xlink" x="0px" y="0px"
	 viewBox="0 0 534.3 164.6" style="enable-background:new 0 0 534.3 164.6;" xml:space="preserve">
<style type="text/css">
	.st0{display:none;}
	.st1{fill:#FF1818;}
	.st2{fill:#FFFFFF;}
	.st3{fill:#FCA6A6;}
</style>
<g id="Calque_1" class="st0">
	
		<image style="display:inline;overflow:visible;" width="620" height="197" xlink:href="942DFD97.jpg"  transform="matrix(1 0 0 1 -36.706 -7.9753)">
	</image>
</g>
<g id="Calque_2">
	<g id="Pokeball">
		<rect x="520.3" width="7" height="3"/>
		<rect x="527.3" y="3" width="4" height="4"/>
		<rect x="531.3" y="7" width="3" height="7"/>
		<rect x="527.3" y="14" width="4" height="4"/>
		<rect x="516.3" y="3" width="4" height="4"/>
		<rect x="513.3" y="7" width="3" height="7"/>
		<rect x="516.3" y="14" width="4" height="4"/>
		<rect x="520.3" y="18" width="7" height="3"/>
		<polygon class="st1" points="516.3,10 531.3,10 531.3,7 527.3,7 527.3,3 520.3,3 520.3,7 516.3,7 		"/>
		<polygon class="st2" points="531.3,11 516.3,11 516.3,14 520.3,14 520.3,18 527.3,18 527.3,14 531.3,14 		"/>
		<rect x="516.3" y="10" class="st3" width="15" height="0.9"/>
		<rect x="520.3" y="3" class="st2" width="4" height="4"/>
	</g>
	<g id="Pokeball_00000037669817730615409570000003629742511704526487_">
		<rect x="520.3" y="143.6" width="7" height="3"/>
		<rect x="527.3" y="146.6" width="4" height="4"/>
		<rect x="531.3" y="150.6" width="3" height="7"/>
		<rect x="527.3" y="157.6" width="4" height="4"/>
		<rect x="516.3" y="146.6" width="4" height="4"/>
		<rect x="513.3" y="150.6" width="3" height="7"/>
		<rect x="516.3" y="157.6" width="4" height="4"/>
		<rect x="520.3" y="161.6" width="7" height="3"/>
		<polygon class="st1" points="516.3,153.6 531.3,153.6 531.3,150.6 527.3,150.6 527.3,146.6 520.3,146.6 520.3,150.6 516.3,150.6 
					"/>
		<polygon class="st2" points="531.3,154.6 516.3,154.6 516.3,157.6 520.3,157.6 520.3,161.6 527.3,161.6 527.3,157.6 531.3,157.6 
					"/>
		<rect x="516.3" y="153.6" class="st3" width="15" height="0.9"/>
		<rect x="520.3" y="146.6" class="st2" width="4" height="4"/>
	</g>
	<g id="Pokeball_00000167381780428981844830000015013525385743308937_">
		<rect x="7" y="143" width="7" height="3"/>
		<rect x="14" y="146" width="4" height="4"/>
		<rect x="18" y="150.1" width="3" height="7"/>
		<rect x="14" y="157" width="4" height="4"/>
		<rect x="3" y="146" width="4" height="4"/>
		<rect y="150.1" width="3" height="7"/>
		<rect x="3" y="157" width="4" height="4"/>
		<rect x="7" y="161" width="7" height="3"/>
		<polygon class="st1" points="3,153.1 18,153.1 18,150.1 14,150.1 14,146 7,146 7,150.1 3,150.1 		"/>
		<polygon class="st2" points="18,154 3,154 3,157 7,157 7,161 14,161 14,157 18,157 		"/>
		<rect x="3" y="153.1" class="st3" width="15" height="0.9"/>
		<rect x="7" y="146" class="st2" width="4" height="4"/>
	</g>
	<g id="Pokeball_00000135670339180522742750000013667896937375276416_">
		<rect x="7" y="0" width="7" height="3"/>
		<rect x="14" y="3" width="4" height="4"/>
		<rect x="18" y="7.1" width="3" height="7"/>
		<rect x="14" y="14" width="4" height="4"/>
		<rect x="3" y="3" width="4" height="4"/>
		<rect x="0" y="7.1" width="3" height="7"/>
		<rect x="3" y="14" width="4" height="4"/>
		<rect x="7" y="18" width="7" height="3"/>
		<polygon class="st1" points="3,10.1 18,10.1 18,7.1 14,7.1 14,3 7,3 7,7.1 3,7.1 		"/>
		<polygon class="st2" points="18,11 3,11 3,14 7,14 7,18 14,18 14,14 18,14 		"/>
		<rect x="3" y="10.1" class="st3" width="15" height="0.9"/>
		<rect x="7" y="3" class="st2" width="4" height="4"/>
	</g>
	<rect x="524.3" y="21" width="3" height="122.8"/>
	<rect x="7" y="21.1" width="3.2" height="123"/>
	<rect x="21" y="3" width="492.3" height="4"/>
	<rect x="21" y="14" width="492.3" height="4"/>
	<rect x="21" y="146" width="492.3" height="4.6"/>
	<rect x="21" y="157" width="492.3" height="4"/>
	<rect x="513.3" y="18" width="3" height="3"/>
	<rect x="18" y="18" width="3" height="3"/>
	<rect x="18" y="142.8" width="3" height="3.2"/>
	<rect x="513.3" y="143.6" width="3" height="3.1"/>
	<rect x="516.2" y="21" width="4.1" height="122.6"/>
	<rect x="14" y="21.1" width="4" height="122"/>
</g>
</svg>
