<?xml version="1.0" encoding="utf-8"?>
<!-- Generator: Adobe Illustrator 25.4.0, SVG Export Plug-In . SVG Version: 6.00 Build 0)  -->
<svg version="1.1" xmlns="http://www.w3.org/2000/svg" xmlns:xlink="http://www.w3.org/1999/xlink" x="0px" y="0px"
	 viewBox="0 0 680 266.4" style="enable-background:new 0 0 680 266.4;" xml:space="preserve">
<style type="text/css">
	.st0{fill:#FF1818;}
	.st1{fill:#FFFFFF;}
	.st2{fill:#FCA6A6;}
	.st3{fill:#2B0B0B;}
	.st4{fill:#9E554F;}
	.st5{fill:#883C3C;}
	.st6{fill:#D28657;}
	.st7{fill:#6B2B33;}
	.st8{fill:#D38657;}
	.st9{fill:#E6AF73;}
	.st10{fill:#AAB0B1;}
	.st11{fill:#6F8D81;}
	.st12{fill:#565871;}
	.st13{fill:#DFD2BE;}
	.st14{fill:#DED2BF;}
</style>
<g id="Calque_1">
	
		<image style="display:none;overflow:visible;" width="620" height="197" xlink:href="3C54F7EC.jpg"  transform="matrix(1 0 0 1 -36.706 -7.9753)">
	</image>
	
		<image style="display:none;overflow:visible;" width="640" height="344" xlink:href="C:\Users\xoraf\OneDrive\Bureau\b79c3c6e97ab22eb469b6b2b942b0341.png"  transform="matrix(0.3436 0 0 0.3436 502.8817 172.1538)">
	</image>
	
		<image style="display:none;overflow:visible;" width="1300" height="1235" xlink:href="C:\Users\xoraf\OneDrive\Bureau\vector-pixel-art-isole-cable-tube-serpent-2c3y885.jpg"  transform="matrix(-0.2323 -6.047788e-02 6.047788e-02 -0.2323 688.618 216.4368)">
	</image>
</g>
<g id="Calque_2">
	<g id="Pokeball">
		<rect x="520.3" width="7" height="3"/>
		<rect x="527.3" y="3" width="4" height="4"/>
		<rect x="531.3" y="7" width="3" height="7"/>
		<rect x="527.3" y="14" width="4" height="4"/>
		<rect x="516.3" y="3" width="4" height="4"/>
		<rect x="513.3" y="7" width="3" height="7"/>
		<rect x="516.3" y="14" width="4" height="4"/>
		<rect x="520.3" y="18" width="7" height="3"/>
		<polygon class="st0" points="516.3,10 531.3,10 531.3,7 527.3,7 527.3,3 520.3,3 520.3,7 516.3,7 		"/>
		<polygon class="st1" points="531.3,11 516.3,11 516.3,14 520.3,14 520.3,18 527.3,18 527.3,14 531.3,14 		"/>
		<rect x="516.3" y="10" class="st2" width="15" height="0.9"/>
		<rect x="520.3" y="3" class="st1" width="4" height="4"/>
	</g>
	<g id="Pokeball_00000037669817730615409570000003629742511704526487_">
		<rect x="520.3" y="143.6" width="7" height="3"/>
		<rect x="527.3" y="146.6" width="4" height="4"/>
		<rect x="531.3" y="150.6" width="3" height="7"/>
		<rect x="527.3" y="157.6" width="4" height="4"/>
		<rect x="516.3" y="146.6" width="4" height="4"/>
		<rect x="513.3" y="150.6" width="3" height="7"/>
		<rect x="516.3" y="157.6" width="4" height="4"/>
		<rect x="520.3" y="161.6" width="7" height="3"/>
		<polygon class="st0" points="516.3,153.6 531.3,153.6 531.3,150.6 527.3,150.6 527.3,146.6 520.3,146.6 520.3,150.6 516.3,150.6 
					"/>
		<polygon class="st1" points="531.3,154.6 516.3,154.6 516.3,157.6 520.3,157.6 520.3,161.6 527.3,161.6 527.3,157.6 531.3,157.6 
					"/>
		<rect x="516.3" y="153.6" class="st2" width="15" height="0.9"/>
		<rect x="520.3" y="146.6" class="st1" width="4" height="4"/>
	</g>
	<g id="Pokeball_00000167381780428981844830000015013525385743308937_">
		<rect x="7" y="143" width="7" height="3"/>
		<rect x="14" y="146" width="4" height="4"/>
		<rect x="18" y="150.1" width="3" height="7"/>
		<rect x="14" y="157" width="4" height="4"/>
		<rect x="3" y="146" width="4" height="4"/>
		<rect y="150.1" width="3" height="7"/>
		<rect x="3" y="157" width="4" height="4"/>
		<rect x="7" y="161" width="7" height="3"/>
		<polygon class="st0" points="3,153.1 18,153.1 18,150.1 14,150.1 14,146 7,146 7,150.1 3,150.1 		"/>
		<polygon class="st1" points="18,154 3,154 3,157 7,157 7,161 14,161 14,157 18,157 		"/>
		<rect x="3" y="153.1" class="st2" width="15" height="0.9"/>
		<rect x="7" y="146" class="st1" width="4" height="4"/>
	</g>
	<g id="Pokeball_00000135670339180522742750000013667896937375276416_">
		<rect x="7" y="0" width="7" height="3"/>
		<rect x="14" y="3" width="4" height="4"/>
		<rect x="18" y="7.1" width="3" height="7"/>
		<rect x="14" y="14" width="4" height="4"/>
		<rect x="3" y="3" width="4" height="4"/>
		<rect x="0" y="7.1" width="3" height="7"/>
		<rect x="3" y="14" width="4" height="4"/>
		<rect x="7" y="18" width="7" height="3"/>
		<polygon class="st0" points="3,10.1 18,10.1 18,7.1 14,7.1 14,3 7,3 7,7.1 3,7.1 		"/>
		<polygon class="st1" points="18,11 3,11 3,14 7,14 7,18 14,18 14,14 18,14 		"/>
		<rect x="3" y="10.1" class="st2" width="15" height="0.9"/>
		<rect x="7" y="3" class="st1" width="4" height="4"/>
	</g>
	<rect x="524.3" y="21" width="3" height="122.8"/>
	<rect x="7" y="21.1" width="3.2" height="123"/>
	<rect x="21" y="3" width="492.3" height="4"/>
	<rect x="21" y="14" width="492.3" height="4"/>
	<rect x="21" y="146" width="492.3" height="4.6"/>
	<rect x="21" y="157" width="492.3" height="4"/>
	<rect x="513.3" y="18" width="3" height="3"/>
	<rect x="18" y="18" width="3" height="3"/>
	<rect x="18" y="142.8" width="3" height="3.2"/>
	<rect x="513.3" y="143.6" width="3" height="3.1"/>
	<rect x="516.2" y="21" width="4.1" height="122.6"/>
	<rect x="14" y="21.1" width="4" height="122"/>
</g>
<g id="Calque_4">
	<rect x="543.7" y="227.7" width="21.1" height="5.1"/>
	<rect x="564.8" y="232.9" width="46.5" height="5.1"/>
	<rect x="611.3" y="238.2" width="18.6" height="5.1"/>
	<rect x="629.9" y="243.5" transform="matrix(-1 -1.224647e-16 1.224647e-16 -1 1289.8407 492.066)" width="30" height="5.1"/>
	<rect x="530.5" y="214.6" transform="matrix(-1.836970e-16 1 -1 -1.836970e-16 758.261 -323.9863)" width="21.1" height="5.1"/>
	<rect x="543.7" y="201.4" transform="matrix(-1 -1.224647e-16 1.224647e-16 -1 1108.5385 407.9835)" width="21.1" height="5.1"/>
	<rect x="564.8" y="206.6" transform="matrix(-1 -1.224647e-16 1.224647e-16 -1 1150.8352 418.2692)" width="21.1" height="5.1"/>
	<rect x="586" y="211.7" transform="matrix(-1 -1.224647e-16 1.224647e-16 -1 1193.1318 428.5549)" width="21.1" height="5.1"/>
	<rect x="606.9" y="206.5" transform="matrix(-1 -1.224647e-16 1.224647e-16 -1 1234.9011 418.1703)" width="21.1" height="5.1"/>
	<rect x="620" y="193.7" transform="matrix(6.123234e-17 -1 1 6.123234e-17 434.3599 826.8324)" width="21.1" height="5.1"/>
	<rect x="606.9" y="180.5" width="21.1" height="5.1"/>
	<rect x="585.7" y="175.4" width="21.1" height="5.1"/>
	<rect x="564.6" y="170.2" width="21.1" height="5.1"/>
	<rect x="543.4" y="165.1" width="21.1" height="5.1"/>
	<rect x="530.3" y="152" transform="matrix(-1.836970e-16 1 -1 -1.836970e-16 695.4243 -386.2955)" width="21.1" height="5.1"/>
	<rect x="526.5" y="138.8" transform="matrix(-1 -1.224647e-16 1.224647e-16 -1 1064.8077 282.8376)" width="11.8" height="5.1"/>
</g>
<g id="Calque_3">
	<g>
		<polygon class="st3" points="656.2,185.1 672.8,185.1 672.8,186.9 676.5,186.9 676.5,188.7 678.4,188.7 678.4,190.7 680,190.7 
			680,262.6 678.3,262.6 678.3,264.5 674.6,264.5 674.6,266.4 654.4,266.4 654.4,264.4 650.7,264.4 650.7,262.4 648.9,262.4 
			648.9,190.6 650.5,190.6 650.5,188.8 652.4,188.8 652.4,187 656.3,187 		"/>
		<polygon class="st4" points="652.7,188.8 656.3,188.8 656.3,186.9 672.8,186.9 672.8,188.8 676.5,188.8 676.5,190.6 678.6,190.6 
			678.6,220.2 676.6,220.2 676.6,221.9 673,221.9 673,223.7 656.2,223.7 656.2,221.9 652.7,221.9 652.7,220.3 650.5,220.3 
			650.5,190.6 652.6,190.6 		"/>
		<polygon class="st5" points="678.6,196.1 676.7,196.1 676.7,198 674.8,198 674.8,220.2 678.6,220.2 		"/>
		<polygon class="st6" points="674.8,198 672.9,198 672.9,200 670.9,200 670.9,222 674.8,222 		"/>
		<rect x="650.5" y="194.2" class="st7" width="2.2" height="2.1"/>
		<rect x="652.6" y="196.2" class="st7" width="1.7" height="25.7"/>
		<rect x="656.2" y="221.9" class="st7" width="16.8" height="1.8"/>
		<polygon class="st8" points="654.4,198 659.9,198 659.9,200 661.9,200 661.9,221.9 654.4,221.9 		"/>
		<rect x="656.2" y="200" class="st9" width="3.7" height="21.9"/>
		<rect x="661.9" y="200" class="st5" width="5.5" height="21.9"/>
		<rect x="661.9" y="198" class="st7" width="5.5" height="2"/>
		<polygon class="st10" points="659.9,188.7 656.2,188.7 656.2,190.7 654.4,190.7 654.4,194.3 656.2,194.3 656.2,196.2 672.9,196.2 
			672.9,194.2 674.8,194.2 674.8,190.5 672.9,190.5 672.9,188.7 667.5,188.7 667.5,186.9 661.9,186.9 661.9,188.7 		"/>
		<rect x="659.9" y="186.9" class="st7" width="1.7" height="1.8"/>
		<polyline class="st7" points="661.6,188.6 661.6,186.9 659.9,186.9 		"/>
		<rect x="667.5" y="186.9" class="st7" width="1.7" height="1.8"/>
		<polyline class="st7" points="669.2,188.6 669.2,186.9 667.5,186.9 		"/>
		<rect x="658.2" y="190.7" class="st11" width="5.5" height="1.7"/>
		<rect x="661.9" y="192.4" class="st11" width="5.5" height="1.7"/>
		<rect x="665.4" y="190.7" class="st11" width="5.5" height="1.7"/>
		<rect x="659.9" y="188.6" class="st12" width="1.7" height="3.8"/>
		<rect x="667.5" y="188.6" class="st12" width="1.7" height="3.8"/>
		<rect x="661.6" y="188.6" class="st13" width="5.9" height="2.1"/>
		<rect x="663.6" y="207.2" class="st3" width="1.8" height="9.2"/>
		<path class="st14" d="M667.4,231.3v-5.5h-5.5v5.5v5.5h1.7v2h-1.7v22.1h1.8V259h3.7V257h-3.7v-1.6h3.7v-13.1h-2v-1.8h2V233h-3.7
			v-1.8H667.4z M665.4,246v3.8h-1.8V246H665.4z M663.6,227.5h1.7v1.7h-1.7V227.5z"/>
	</g>
</g>
</svg>
